<?xml version="1.0" standalone="no"?>
<!DOCTYPE svg PUBLIC "-//W3C//DTD SVG 20010904//EN"
 "http://www.w3.org/TR/2001/REC-SVG-20010904/DTD/svg10.dtd">
<svg version="1.0" xmlns="http://www.w3.org/2000/svg"
 width="1024.000000pt" height="1024.000000pt" viewBox="0 0 1024.000000 1024.000000"
 preserveAspectRatio="xMidYMid meet">
<metadata>
Created by potrace 1.14, written by Peter Selinger 2001-2017
</metadata>
<g transform="translate(0.000000,1024.000000) scale(0.100000,-0.100000)"
fill="#000000" stroke="none">
<path d="M344 5121 l1 -4776 4775 0 4775 0 0 4775 0 4775 -4776 1 -4776 1 1
-4776z m7496 435 c25 -4 56 -9 70 -11 14 -3 41 -7 60 -10 19 -3 49 -10 65 -15
17 -5 62 -19 100 -31 141 -44 281 -119 402 -215 63 -50 169 -157 212 -214 14
-19 31 -40 37 -47 6 -6 26 -35 44 -65 18 -29 41 -64 50 -78 l18 -26 -212 -134
c-200 -126 -315 -200 -433 -276 -28 -19 -54 -34 -57 -34 -3 0 -18 19 -33 43
-143 221 -308 325 -527 332 -132 4 -228 -27 -314 -101 -97 -82 -138 -184 -129
-320 9 -146 72 -243 221 -338 96 -61 292 -161 406 -206 291 -115 611 -286 809
-433 257 -189 375 -338 452 -567 35 -106 33 -95 54 -245 15 -104 16 -358 2
-425 -3 -14 -8 -43 -12 -65 -6 -42 -40 -165 -54 -200 -5 -11 -22 -47 -37 -80
-141 -300 -456 -539 -840 -640 -299 -78 -711 -85 -1034 -17 -481 102 -838 359
-1070 770 -29 52 -48 97 -44 101 8 7 227 137 362 215 55 32 61 35 122 72 228
136 232 138 240 123 98 -171 322 -386 475 -453 19 -9 50 -23 69 -31 101 -44
323 -69 451 -50 237 35 412 155 470 320 29 85 21 242 -17 325 -44 94 -175 190
-395 290 -76 34 -226 105 -333 156 -108 52 -199 94 -203 94 -15 0 -227 109
-313 160 -473 283 -672 613 -678 1125 -1 61 1 130 5 155 4 25 10 66 13 91 8
61 47 190 80 264 95 213 293 422 511 540 59 32 196 88 245 101 90 23 198 44
255 49 39 4 71 8 73 10 5 5 320 -3 362 -9z m-2298 -55 c8 -1 3 -3223 -5 -3266
-3 -16 -8 -50 -11 -75 -3 -25 -7 -52 -9 -60 -2 -8 -7 -33 -11 -55 -23 -122
-87 -297 -139 -380 -22 -35 -71 -110 -82 -124 -22 -29 -188 -191 -196 -191 -4
0 -14 -6 -21 -13 -71 -70 -348 -187 -498 -212 -67 -11 -105 -18 -125 -22 -11
-3 -112 -6 -225 -8 -163 -2 -228 2 -315 16 -300 51 -539 169 -736 361 -46 46
-92 94 -102 108 -69 96 -144 215 -172 271 l-34 66 29 22 c16 11 31 21 33 21 2
0 150 86 327 190 178 105 329 189 336 186 7 -3 22 -22 33 -43 47 -91 165 -226
261 -296 30 -23 90 -53 135 -69 72 -25 90 -27 180 -23 178 7 291 64 371 184
27 42 77 188 69 201 -3 5 -1 11 5 15 6 4 10 561 10 1597 0 875 2 1593 4 1597
3 5 860 7 888 2z"/>
</g>
</svg>
